<?xml version="1.0" standalone="no"?><!DOCTYPE svg PUBLIC "-//W3C//DTD SVG 1.1//EN" "http://www.w3.org/Graphics/SVG/1.1/DTD/svg11.dtd"><svg t="1669963416392" class="icon" viewBox="0 0 1024 1024" version="1.1" xmlns="http://www.w3.org/2000/svg" p-id="1987" xmlns:xlink="http://www.w3.org/1999/xlink" width="128" height="128"><path d="M711.5 897.1c-104.2 0-189-84.8-189-189s84.8-189 189-189 189 84.8 189 189-84.8 189-189 189z m0-336c-81 0-147 65.9-147 147 0 81 66 147 147 147s147-66 147-147c0-81.1-66-147-147-147zM375.5 476.5h-168c-57.9 0-105-47.1-105-105v-168c0-57.9 47.1-105 105-105h168c57.9 0 105 47.1 105 105v168c0 57.9-47.1 105-105 105z m-168-336c-34.7 0-63 28.3-63 63v168c0 34.7 28.3 63 63 63h168c34.7 0 63-28.3 63-63v-168c0-34.7-28.3-63-63-63h-168zM375.5 896.5h-168c-57.9 0-105-47.1-105-105v-168c0-57.9 47.1-105 105-105h168c57.9 0 105 47.1 105 105v168c0 57.9-47.1 105-105 105z m-168-336c-34.7 0-63 28.3-63 63v168c0 34.7 28.3 63 63 63h168c34.7 0 63-28.3 63-63v-168c0-34.7-28.3-63-63-63h-168zM795.5 476.5h-168c-57.9 0-105-47.1-105-105v-168c0-57.9 47.1-105 105-105h168c57.9 0 105 47.1 105 105v168c0 57.9-47.1 105-105 105z m-168-336c-34.7 0-63 28.3-63 63v168c0 34.7 28.3 63 63 63h168c34.7 0 63-28.3 63-63v-168c0-34.7-28.3-63-63-63h-168zM900.5 917.5c-5.4 0-10.7-2.1-14.8-6.2L855 880.7c-8.2-8.2-8.2-21.5 0-29.7s21.5-8.2 29.7 0l30.6 30.6c8.2 8.2 8.2 21.5 0 29.7-4.1 4.2-9.4 6.2-14.8 6.2z" p-id="1988"></path></svg>